<svg xmlns="http://www.w3.org/2000/svg" display="none">

<symbol id="v" viewBox="0 0 10 8" fill="none">
<path d="M0.775084 2.2682C2.17827 3.46048 3.36125 4.82216 4.51516 6.3093L3.00922 6.24382C4.93063 3.97969 6.97442 1.96739 9.20406 0.113507C9.70262 -0.296737 10.2941 0.501775 9.83442 0.971999C7.89378 2.9898 6.06038 5.24294 4.47135 7.58902C4.16804 8.04322 3.59129 8.13617 3.19015 7.7914C2.17828 6.26031 1.34242 4.45541 0.129569 3.06672C-0.266256 2.60153 0.33014 1.86895 0.775084 2.2682Z" fill="currentColor"/>
</symbol>

<symbol id="arrow" viewBox="0 0 9 16" fill="none">
<path d="M8.20711 8.70711C8.59763 8.31658 8.59763 7.68342 8.20711 7.29289L1.84315 0.928932C1.45262 0.538408 0.819457 0.538408 0.428932 0.928932C0.0384078 1.31946 0.0384078 1.95262 0.428932 2.34315L6.08579 8L0.428932 13.6569C0.0384078 14.0474 0.0384078 14.6805 0.428932 15.0711C0.819457 15.4616 1.45262 15.4616 1.84315 15.0711L8.20711 8.70711ZM6 9H7.5V7H6V9Z" fill="currentColor"/>
</symbol>

<symbol id="to-top" viewBox="0 0 16 21" fill="none">
<path d="M8.70711 0.292892C8.31658 -0.0976314 7.68342 -0.0976315 7.29289 0.292892L0.928933 6.65685C0.538408 7.04738 0.538408 7.68054 0.928933 8.07107C1.31946 8.46159 1.95262 8.46159 2.34315 8.07107L8 2.41421L13.6569 8.07107C14.0474 8.46159 14.6805 8.46159 15.0711 8.07107C15.4616 7.68054 15.4616 7.04738 15.0711 6.65685L8.70711 0.292892ZM9 21L9 1L7 1L7 21L9 21Z" fill="currentColor"/>
</symbol>

<symbol id="burger" viewBox="0 0 20 12" fill="none">
<path d="M19.0945 6.70211H0.905535C0.665372 6.70211 0.435046 6.61058 0.265225 6.44765C0.0954042 6.28473 0 6.06375 0 5.83333C0 5.60292 0.0954042 5.38194 0.265225 5.21901C0.435046 5.05609 0.665372 4.96455 0.905535 4.96455H19.0945C19.3346 4.96455 19.565 5.05609 19.7348 5.21901C19.9046 5.38194 20 5.60292 20 5.83333C20 6.06375 19.9046 6.28473 19.7348 6.44765C19.565 6.61058 19.3346 6.70211 19.0945 6.70211ZM19.0945 1.73756H0.905535C0.665372 1.73756 0.435046 1.64603 0.265225 1.4831C0.0954042 1.32017 0 1.09919 0 0.86878C0 0.638365 0.0954042 0.417387 0.265225 0.25446C0.435046 0.0915319 0.665372 0 0.905535 0H19.0945C19.3346 0 19.565 0.0915319 19.7348 0.25446C19.9046 0.417387 20 0.638365 20 0.86878C20 1.09919 19.9046 1.32017 19.7348 1.4831C19.565 1.64603 19.3346 1.73756 19.0945 1.73756ZM19.0945 11.6667H0.905535C0.665372 11.6667 0.435046 11.5751 0.265225 11.4122C0.0954042 11.2493 0 11.0283 0 10.7979C0 10.5675 0.0954042 10.3465 0.265225 10.1836C0.435046 10.0206 0.665372 9.92911 0.905535 9.92911H19.0945C19.3346 9.92911 19.565 10.0206 19.7348 10.1836C19.9046 10.3465 20 10.5675 20 10.7979C20 11.0283 19.9046 11.2493 19.7348 11.4122C19.565 11.5751 19.3346 11.6667 19.0945 11.6667Z" fill="currentColor"/>
</symbol>

<symbol id="cross" viewBox="0 0 14 14" fill="none">
<path d="M8.28259 6.99998L13.734 1.54848C14.0887 1.19387 14.0887 0.620514 13.734 0.265953C13.3794 -0.0886509 12.806 -0.0886509 12.4515 0.265953L6.99994 5.71741L1.54861 0.265953C1.19383 -0.0886509 0.620684 -0.0886509 0.26608 0.265953C-0.0886934 0.620556 -0.0886934 1.19387 0.26608 1.54848L5.71737 6.99998L0.266123 12.4514C-0.0886509 12.806 -0.0886509 13.3794 0.266123 13.734C0.350236 13.8183 0.450189 13.8852 0.560238 13.9308C0.670287 13.9764 0.788262 13.9998 0.907386 13.9997C1.13954 13.9997 1.37177 13.9108 1.54865 13.734L6.99994 8.2825L12.4515 13.734C12.5356 13.8183 12.6356 13.8852 12.7456 13.9308C12.8556 13.9764 12.9736 13.9998 13.0927 13.9997C13.3249 13.9997 13.5571 13.9108 13.734 13.734C14.0887 13.3794 14.0887 12.806 13.734 12.4514L8.28259 6.99998Z" fill="currentColor"/>
</symbol>

<symbol id="search" viewBox="0 0 20 20" fill="none">
<path d="M19.8102 18.9119L14.6466 13.8308C15.9988 12.3616 16.8296 10.4187 16.8296 8.28068C16.8289 3.7071 13.0618 0 8.41447 0C3.76713 0 0 3.7071 0 8.28068C0 12.8543 3.76713 16.5614 8.41447 16.5614C10.4224 16.5614 12.2641 15.8668 13.7107 14.7122L18.8944 19.8134C19.147 20.0622 19.5571 20.0622 19.8096 19.8134C19.8697 19.7547 19.9175 19.6846 19.9501 19.6072C19.9827 19.5299 19.9995 19.4467 19.9996 19.3628C19.9996 19.2788 19.9829 19.1957 19.9504 19.1182C19.9179 19.0408 19.8702 18.9707 19.8102 18.9119ZM8.41447 15.2873C4.48231 15.2873 1.29468 12.1504 1.29468 8.28068C1.29468 4.41101 4.48231 1.27403 8.41447 1.27403C12.3467 1.27403 15.5343 4.41101 15.5343 8.28068C15.5343 12.1504 12.3467 15.2873 8.41447 15.2873Z" fill="currentColor"/>
</symbol>

<symbol id="bookmark" viewBox="0 0 15 20" fill="none">
<path d="M14.3182 19.999C14.1784 19.9989 14.042 19.9568 13.9275 19.8784L7.5 15.4799L1.0725 19.8797C0.970241 19.9496 0.850322 19.9907 0.725807 19.9986C0.601292 20.0065 0.476955 19.9808 0.36634 19.9243C0.255726 19.8679 0.163074 19.7829 0.0984787 19.6785C0.0338832 19.5741 -0.000179633 19.4544 7.12423e-07 19.3324V3.19985C0.000903162 2.35146 0.345997 1.53808 0.959557 0.938188C1.57312 0.338291 2.40502 0.000882352 3.27273 0H11.7273C12.595 0.000882352 13.4269 0.338291 14.0404 0.938188C14.654 1.53808 14.9991 2.35146 15 3.19985V19.3324C15 19.5092 14.9282 19.6788 14.8003 19.8038C14.6724 19.9288 14.499 19.999 14.3182 19.999ZM7.5 13.9993C7.6398 13.9994 7.77619 14.0416 7.89068 14.12L13.6364 18.0518V3.19985C13.6364 2.7048 13.4352 2.23003 13.0772 1.87998C12.7192 1.52993 12.2336 1.33327 11.7273 1.33327H3.27273C2.76641 1.33327 2.28082 1.52993 1.9228 1.87998C1.56477 2.23003 1.36364 2.7048 1.36364 3.19985V18.0518L7.10932 14.1187C7.22397 14.0407 7.36035 13.999 7.5 13.9993Z" fill="currentColor"/>
</symbol>
<symbol id="bookmark-fill" viewBox="0 0 15 20" fill="none">
<path d="M14.3182 19.999C14.1784 19.9989 14.042 19.9568 13.9275 19.8784L7.5 15.4799L1.0725 19.8797C0.970241 19.9496 0.850322 19.9907 0.725807 19.9986C0.601292 20.0065 0.476955 19.9808 0.36634 19.9243C0.255726 19.8679 0.163074 19.7829 0.0984787 19.6785C0.0338832 19.5741 -0.000179633 19.4544 7.12423e-07 19.3324V3.19985C0.000903162 2.35146 0.345997 1.53808 0.959557 0.938188C1.57312 0.338291 2.40502 0.000882352 3.27273 0H11.7273C12.595 0.000882352 13.4269 0.338291 14.0404 0.938188C14.654 1.53808 14.9991 2.35146 15 3.19985V19.3324C15 19.5092 14.9282 19.6788 14.8003 19.8038C14.6724 19.9288 14.499 19.999 14.3182 19.999ZM7.5 13.9993C7.6398 13.9994 7.77619 14.0416 7.89068 14.12L13.6364 18.0518V3.19985C13.6364 2.7048 13.4352 2.23003 13.0772 1.87998C12.7192 1.52993 12.2336 1.33327 11.7273 1.33327H3.27273C2.76641 1.33327 2.28082 1.52993 1.9228 1.87998C1.56477 2.23003 1.36364 2.7048 1.36364 3.19985V18.0518L7.10932 14.1187C7.22397 14.0407 7.36035 13.999 7.5 13.9993Z" fill="currentColor"/>
<path d="M7.5 13.9993C7.6398 13.9994 7.77619 14.0416 7.89068 14.12L13.6364 18.0518V3.19985C13.6364 2.7048 13.4352 2.23003 13.0772 1.87998C12.7192 1.52993 12.2336 1.33327 11.7273 1.33327H3.27273C2.76641 1.33327 2.28082 1.52993 1.9228 1.87998C1.56477 2.23003 1.36364 2.7048 1.36364 3.19985V18.0518L7.10932 14.1187C7.22397 14.0407 7.36035 13.999 7.5 13.9993Z" fill="currentColor"/>
</symbol>

<symbol id="ring" viewBox="0 0 18 20" fill="none">
<path d="M15.2 10.268V8.39844C15.2 5.67102 13.3436 3.35934 10.8 2.6043V1.75781C10.8 0.788555 9.99254 0 9.00003 0C8.00751 0 7.20004 0.788555 7.20004 1.75781V2.6043C4.65645 3.35934 2.80006 5.67098 2.80006 8.39844V10.268C2.80006 12.6638 1.86494 14.9355 0.166992 16.6648C0.0855784 16.7477 0.0309053 16.8521 0.00976892 16.9651C-0.0113674 17.078 0.00196516 17.1946 0.0481092 17.3002C0.0942532 17.4059 0.171174 17.4959 0.269308 17.5592C0.367442 17.6225 0.482462 17.6563 0.600069 17.6562H6.0604C6.33912 18.9919 7.55127 20 9.00003 20C10.4488 20 11.6609 18.9919 11.9397 17.6562H17.4C17.5176 17.6563 17.6326 17.6225 17.7307 17.5592C17.8288 17.4959 17.9057 17.4058 17.9519 17.3002C17.998 17.1946 18.0114 17.078 17.9902 16.9651C17.9691 16.8521 17.9145 16.7477 17.8331 16.6648C16.1351 14.9355 15.2 12.6638 15.2 10.268ZM8.40003 1.75781C8.40003 1.43473 8.66919 1.17188 9.00003 1.17188C9.33086 1.17188 9.60002 1.43473 9.60002 1.75781V2.37219C9.40254 2.35359 9.20243 2.34375 9.00003 2.34375C8.79763 2.34375 8.59751 2.35359 8.40003 2.37219V1.75781ZM9.00003 18.8281C8.21783 18.8281 7.55091 18.3382 7.30324 17.6562H10.6968C10.4491 18.3382 9.78222 18.8281 9.00003 18.8281ZM1.89326 16.4844C3.2597 14.6956 4.00005 12.5309 4.00005 10.268V8.39844C4.00005 5.70605 6.24304 3.51562 9.00003 3.51562C11.757 3.51562 14 5.70605 14 8.39844V10.268C14 12.5309 14.7404 14.6956 16.1068 16.4844H1.89326ZM16.8 8.39844C16.8 8.72203 17.0686 8.98438 17.4 8.98438C17.7313 8.98438 18 8.72203 18 8.39844C18 6.05078 17.0638 3.84363 15.364 2.18359C15.1297 1.9548 14.7498 1.95477 14.5154 2.18359C14.2811 2.41242 14.2811 2.7834 14.5154 3.01223C15.9887 4.45094 16.8 6.36379 16.8 8.39844ZM0.600069 8.98438C0.931428 8.98438 1.20007 8.72203 1.20007 8.39844C1.20007 6.36383 2.01142 4.45098 3.48461 3.01227C3.71893 2.78344 3.71893 2.41246 3.48461 2.18363C3.25034 1.9548 2.87042 1.9548 2.6361 2.18363C0.936228 3.84367 7.23188e-05 6.05078 7.23188e-05 8.39844C7.23188e-05 8.72203 0.268711 8.98438 0.600069 8.98438Z" fill="currentColor"/>
</symbol>
<symbol id="ring-fill" viewBox="0 0 18 20" fill="none">
<path d="M15.2 10.268V8.39844C15.2 5.67102 13.3436 3.35934 10.8 2.6043V1.75781C10.8 0.788555 9.99254 0 9.00003 0C8.00751 0 7.20004 0.788555 7.20004 1.75781V2.6043C4.65645 3.35934 2.80006 5.67098 2.80006 8.39844V10.268C2.80006 12.6638 1.86494 14.9355 0.166992 16.6648C0.0855784 16.7477 0.0309053 16.8521 0.00976893 16.9651C-0.0113674 17.078 0.00196516 17.1946 0.0481092 17.3002C0.0942532 17.4059 0.171174 17.4959 0.269308 17.5592C0.367442 17.6225 0.482462 17.6563 0.600069 17.6562H6.0604C6.33912 18.9919 7.55127 20 9.00003 20C10.4488 20 11.6609 18.9919 11.9397 17.6562H17.4C17.5176 17.6563 17.6326 17.6225 17.7307 17.5592C17.8288 17.4959 17.9057 17.4058 17.9519 17.3002C17.998 17.1946 18.0114 17.078 17.9902 16.9651C17.9691 16.8521 17.9145 16.7477 17.8331 16.6648C16.1351 14.9355 15.2 12.6638 15.2 10.268ZM8.40003 1.75781C8.40003 1.43473 8.66919 1.17188 9.00003 1.17188C9.33086 1.17188 9.60002 1.43473 9.60002 1.75781V2.37219C9.40254 2.35359 9.20243 2.34375 9.00003 2.34375C8.79763 2.34375 8.59751 2.35359 8.40003 2.37219V1.75781ZM9.00003 18.8281C8.21783 18.8281 7.55091 18.3382 7.30324 17.6562H10.6968C10.4491 18.3382 9.78222 18.8281 9.00003 18.8281ZM1.89326 16.4844C3.2597 14.6956 4.00005 12.5309 4.00005 10.268V8.39844C4.00005 5.70605 6.24304 3.51562 9.00003 3.51562C11.757 3.51562 14 5.70605 14 8.39844V10.268C14 12.5309 14.7404 14.6956 16.1068 16.4844H1.89326ZM16.8 8.39844C16.8 8.72203 17.0686 8.98438 17.4 8.98438C17.7313 8.98438 18 8.72203 18 8.39844C18 6.05078 17.0638 3.84363 15.364 2.18359C15.1297 1.9548 14.7498 1.95477 14.5154 2.18359C14.2811 2.41242 14.2811 2.7834 14.5154 3.01223C15.9887 4.45094 16.8 6.36379 16.8 8.39844ZM0.600069 8.98438C0.931428 8.98438 1.20007 8.72203 1.20007 8.39844C1.20007 6.36383 2.01142 4.45098 3.48461 3.01227C3.71893 2.78344 3.71893 2.41246 3.48461 2.18363C3.25034 1.9548 2.87042 1.9548 2.6361 2.18363C0.936228 3.84367 7.23195e-05 6.05078 7.23195e-05 8.39844C7.23195e-05 8.72203 0.268711 8.98438 0.600069 8.98438Z" fill="currentColor"/>
<path d="M1.89326 16.4844C3.2597 14.6956 4.00005 12.5309 4.00005 10.268V8.39844C4.00005 5.70605 6.24304 3.51562 9.00003 3.51562C11.757 3.51562 14 5.70605 14 8.39844V10.268C14 12.5309 14.7404 14.6956 16.1068 16.4844H1.89326Z" fill="currentColor"/>
</symbol>

<symbol id="profile" viewBox="0 0 20 20" fill="none">
<path fill-rule="evenodd" clip-rule="evenodd" d="M20 10C20 12.6522 18.9464 15.1957 17.0711 17.0711C15.1957 18.9464 12.6522 20 10 20C7.34784 20 4.8043 18.9464 2.92893 17.0711C1.05357 15.1957 0 12.6522 0 10C0 7.34784 1.05357 4.8043 2.92893 2.92893C4.8043 1.05357 7.34784 0 10 0C12.6522 0 15.1957 1.05357 17.0711 2.92893C18.9464 4.8043 20 7.34784 20 10ZM10 18.6206C12.1131 18.6217 14.153 17.846 15.7314 16.4411L15.6897 16.3726C15.4564 15.9879 15.1656 15.6412 14.8274 15.3446C13.9931 14.6 12.5171 13.7931 10 13.7931C7.48286 13.7931 6.00686 14.6 5.17257 15.3446C4.83436 15.6412 4.54357 15.9879 4.31029 16.3726L4.26914 16.4411C5.84747 17.8459 7.88707 18.6216 10 18.6206ZM15.7446 14.3103C16.1086 14.6366 16.4328 15.0049 16.7103 15.4074C17.7317 14.1411 18.3739 12.6117 18.5628 10.9958C18.7517 9.37994 18.4795 7.7436 17.7778 6.27587C17.076 4.80815 15.9732 3.56895 14.5969 2.70149C13.2206 1.83402 11.6269 1.37369 10 1.37369C8.37312 1.37369 6.77945 1.83402 5.40313 2.70149C4.02682 3.56895 2.92405 4.80815 2.22225 6.27587C1.52045 7.7436 1.24827 9.37994 1.43717 10.9958C1.62606 12.6117 2.26831 14.1411 3.28971 15.4074C3.56728 15.005 3.89143 14.6367 4.25543 14.3103C5.352 13.3309 7.15829 12.4137 10 12.4137C12.8411 12.4137 14.648 13.3309 15.7446 14.3109V14.3103ZM12.4137 7.24171C12.4186 7.56178 12.3599 7.87962 12.2408 8.17675C12.1217 8.47387 11.9447 8.74435 11.7201 8.97243C11.4955 9.2005 11.2278 9.38163 10.9325 9.50526C10.6373 9.6289 10.3204 9.69257 10.0003 9.69257C9.68019 9.69257 9.36329 9.6289 9.06803 9.50526C8.77277 9.38163 8.50505 9.2005 8.28045 8.97243C8.05586 8.74435 7.87887 8.47387 7.75979 8.17675C7.64072 7.87962 7.58193 7.56178 7.58686 7.24171C7.59661 6.60807 7.85517 6.00367 8.30671 5.55902C8.75826 5.11437 9.36656 4.86514 10.0003 4.86514C10.634 4.86514 11.2423 5.11437 11.6939 5.55902C12.1454 6.00367 12.404 6.60807 12.4137 7.24171ZM13.7931 7.24171C13.7993 7.74372 13.7058 8.24195 13.5179 8.70752C13.3301 9.1731 13.0517 9.59675 12.6989 9.95392C12.346 10.3111 11.9258 10.5947 11.4626 10.7882C10.9994 10.9818 10.5023 11.0814 10.0003 11.0814C9.49825 11.0814 9.0012 10.9818 8.53797 10.7882C8.07473 10.5947 7.65453 10.3111 7.30172 9.95392C6.94891 9.59675 6.67051 9.1731 6.48267 8.70752C6.29482 8.24195 6.20127 7.74372 6.20743 7.24171C6.21968 6.24385 6.62467 5.29101 7.33464 4.5897C8.04461 3.8884 9.00235 3.49513 10.0003 3.49513C10.9982 3.49513 11.956 3.8884 12.6659 4.5897C13.3759 5.29101 13.7809 6.24385 13.7931 7.24171Z" fill="currentColor"/>
</symbol>

<symbol id="star" viewBox="0 0 16 16" fill="none">
<path d="M3.58117 16C3.40586 16 3.23179 15.9429 3.08323 15.8309C2.9481 15.7288 2.84472 15.5875 2.78592 15.4246C2.72712 15.2618 2.71551 15.0844 2.75253 14.9147L3.78187 10.1833L0.291039 6.9889C0.165491 6.87458 0.0749236 6.72428 0.0306055 6.55667C-0.0137126 6.38906 -0.00982554 6.21156 0.0417831 6.04624C0.093075 5.88101 0.189712 5.73512 0.319714 5.62667C0.449715 5.51821 0.607363 5.45195 0.773112 5.43611L5.39187 4.99852L7.21801 0.539205C7.3526 0.211573 7.65923 0 7.99996 0C8.34069 0 8.64732 0.211573 8.78198 0.538455L10.608 4.99852L15.2261 5.43604C15.5662 5.468 15.8528 5.70814 15.9581 6.04621C16.0635 6.38431 15.9661 6.75512 15.7095 6.98886L12.2187 10.1827L13.248 14.914C13.3235 15.2618 13.194 15.6216 12.9174 15.8302C12.6414 16.0389 12.2734 16.0549 11.9827 15.8726L7.99996 13.3891L4.01722 15.874C3.88256 15.9575 3.73252 16 3.58117 16ZM7.99996 12.3192C8.15134 12.3192 8.30122 12.3616 8.436 12.445L12.1948 14.7909L11.2233 10.3253C11.1893 10.1692 11.1964 10.0064 11.2438 9.85417C11.2912 9.70194 11.3772 9.56594 11.4927 9.46057L14.7888 6.44415L10.428 6.03095C10.2745 6.01661 10.1277 5.95898 10.0032 5.86424C9.87872 5.7695 9.78128 5.64121 9.72131 5.49311L7.99996 1.28493L6.27655 5.49373C6.1552 5.79358 5.88516 5.99958 5.57194 6.02951L1.2105 6.44274L4.50651 9.45916C4.74258 9.67485 4.84583 10.006 4.77589 10.3246L3.80518 14.7901L7.56392 12.445C7.69858 12.3616 7.84861 12.3192 7.99996 12.3192Z" fill="currentColor"/>
</symbol>

<symbol id="star-fill" viewBox="0 0 16 16" fill="none">
<path d="M3.58117 16C3.40586 16 3.23179 15.9429 3.08323 15.8309C2.9481 15.7288 2.84471 15.5875 2.78592 15.4246C2.72712 15.2618 2.71551 15.0844 2.75253 14.9147L3.78187 10.1833L0.291039 6.9889C0.165491 6.87458 0.0749236 6.72428 0.0306055 6.55667C-0.0137126 6.38906 -0.00982554 6.21156 0.0417831 6.04624C0.093075 5.88101 0.189712 5.73512 0.319714 5.62667C0.449715 5.51821 0.607363 5.45195 0.773112 5.43611L5.39187 4.99852L7.218 0.539205C7.3526 0.211573 7.65923 0 7.99996 0C8.34069 0 8.64732 0.211573 8.78198 0.538455L10.608 4.99852L15.2261 5.43604C15.5662 5.468 15.8528 5.70814 15.9581 6.04621C16.0635 6.38431 15.9661 6.75512 15.7095 6.98886L12.2187 10.1827L13.248 14.914C13.3235 15.2618 13.194 15.6216 12.9174 15.8302C12.6414 16.0389 12.2734 16.0549 11.9827 15.8726L7.99996 13.3891L4.01722 15.874C3.88256 15.9575 3.73252 16 3.58117 16ZM7.99996 12.3192C8.15134 12.3192 8.30122 12.3616 8.436 12.445L12.1948 14.7909L11.2233 10.3253C11.1893 10.1692 11.1964 10.0064 11.2438 9.85417C11.2912 9.70194 11.3772 9.56594 11.4927 9.46057L14.7888 6.44415L10.428 6.03095C10.2745 6.01661 10.1277 5.95898 10.0032 5.86424C9.87872 5.7695 9.78128 5.64121 9.72131 5.49311L7.99996 1.28493L6.27655 5.49373C6.1552 5.79358 5.88516 5.99958 5.57194 6.02951L1.2105 6.44274L4.50651 9.45916C4.74257 9.67485 4.84583 10.006 4.77589 10.3246L3.80518 14.7901L7.56392 12.445C7.69858 12.3616 7.84861 12.3192 7.99996 12.3192ZM5.35659 5.08474C5.35659 5.08474 5.35659 5.08549 5.35587 5.08614L5.35659 5.08474ZM10.642 5.08268L10.6427 5.08408C10.6427 5.08333 10.6428 5.08333 10.642 5.08268Z" fill="currentColor"/>
<path d="M7.99996 12.3192C8.15134 12.3192 8.30122 12.3616 8.436 12.445L12.1948 14.7909L11.2233 10.3253C11.1893 10.1692 11.1964 10.0064 11.2438 9.85417C11.2912 9.70194 11.3772 9.56594 11.4927 9.46057L14.7888 6.44415L10.428 6.03095C10.2745 6.01661 10.1277 5.95898 10.0032 5.86424C9.87872 5.7695 9.78128 5.64121 9.72131 5.49311L7.99996 1.28493L6.27655 5.49373C6.1552 5.79358 5.88516 5.99958 5.57194 6.02951L1.2105 6.44274L4.50651 9.45916C4.74257 9.67485 4.84583 10.006 4.77589 10.3246L3.80518 14.7901L7.56392 12.445C7.69858 12.3616 7.84861 12.3192 7.99996 12.3192Z" fill="currentColor"/>
</symbol>

<symbol id="warning" viewBox="0 0 40 35" fill="none">
<path d="M19.9995 24.5952C18.8812 24.5952 17.9438 25.4924 17.9438 26.5628C17.9438 27.6332 18.8812 28.5305 19.9995 28.5305C21.0767 28.5305 22.0552 27.6332 22.0058 26.6101C22.0552 25.4846 21.126 24.5952 19.9995 24.5952Z" fill="currentColor"/>
<path d="M39.0266 31.5685C40.3176 29.4356 40.3258 26.8934 39.0431 24.7684L26.1665 3.42366C24.892 1.27502 22.5896 0 20.0077 0C17.4258 0 15.1235 1.28289 13.849 3.41579L0.955918 24.7841C-0.32681 26.9328 -0.318587 29.4907 0.980586 31.6236C2.26331 33.7329 4.55742 35 7.12288 35H32.8432C35.4169 35 37.7275 33.7171 39.0266 31.5685ZM36.2309 30.0259C35.5156 31.2064 34.2493 31.9069 32.835 31.9069H7.11466C5.71681 31.9069 4.45875 31.2222 3.75983 30.0652C3.05268 28.8925 3.04446 27.4916 3.75161 26.311L16.6447 4.95053C17.3436 3.77783 18.5934 3.08523 20.0077 3.08523C21.4138 3.08523 22.6718 3.7857 23.3708 4.9584L36.2556 26.3189C36.9463 27.468 36.9381 28.8532 36.2309 30.0259Z" fill="currentColor"/>
<path d="M19.4898 10.7826C18.5113 11.0502 17.9028 11.9002 17.9028 12.9312C17.9522 13.553 17.9933 14.1826 18.0426 14.8044C18.1824 17.1734 18.3222 19.4952 18.462 21.8642C18.5113 22.667 19.1609 23.2494 19.9996 23.2494C20.8383 23.2494 21.4961 22.6277 21.5372 21.817C21.5372 21.329 21.5372 20.8804 21.5866 20.3846C21.677 18.8656 21.7757 17.3466 21.8661 15.8276C21.9155 14.8438 22.0059 13.86 22.0553 12.8761C22.0553 12.522 22.0059 12.2072 21.8661 11.8923C21.4468 11.0108 20.4683 10.5622 19.4898 10.7826Z" fill="currentColor"/>
</symbol>

<symbol id="justice" viewBox="0 0 60 60" fill="none">
<path d="M59 20H52.4C50.0433 20.0025 47.7304 19.3632 45.7096 18.1507C43.6888 16.9382 42.0363 15.1983 40.9295 13.1176L39.7059 10.8235C38.4719 8.50438 36.4475 6.70443 34 5.75025V4C34 2.93913 33.5786 1.92172 32.8284 1.17157C32.0783 0.421427 31.0609 0 30 0C28.9391 0 27.9217 0.421427 27.1716 1.17157C26.4214 1.92172 26 2.93913 26 4V5.75025C23.5525 6.70446 21.5281 8.5044 20.2941 10.8235L19.0706 13.1176C17.9638 15.1983 16.3113 16.9382 14.2905 18.1507C12.2696 19.3632 9.9567 20.0025 7.6 20H1C0.734784 20 0.48043 20.1054 0.292893 20.2929C0.105357 20.4804 0 20.7348 0 21V25C0 25.2652 0.105357 25.5196 0.292893 25.7071C0.48043 25.8946 0.734784 26 1 26H7.57225L4.2995 35H3C2.73478 35 2.48043 35.1054 2.29289 35.2929C2.10536 35.4804 2 35.7348 2 36C2 38.1217 2.84285 40.1566 4.34315 41.6569C5.84344 43.1571 7.87827 44 10 44C12.1217 44 14.1566 43.1571 15.6569 41.6569C17.1571 40.1566 18 38.1217 18 36C18 35.7348 17.8946 35.4804 17.7071 35.2929C17.5196 35.1054 17.2652 35 17 35H15.7005L12.4277 26H14.867C17.7737 26.0003 20.5817 24.9453 22.769 23.0309L25.4007 20.728C25.5919 20.5615 25.7919 20.4056 26 20.2609V46.7637L24.382 50H22C21.8448 50 21.6916 50.0361 21.5528 50.1056C21.4139 50.175 21.2931 50.2758 21.2 50.4L18.5 54H14C13.7348 54 13.4804 54.1054 13.2929 54.2929C13.1054 54.4804 13 54.7348 13 55V59C13 59.2652 13.1054 59.5196 13.2929 59.7071C13.4804 59.8946 13.7348 60 14 60H46C46.2652 60 46.5196 59.8946 46.7071 59.7071C46.8946 59.5196 47 59.2652 47 59V55C47 54.7348 46.8946 54.4804 46.7071 54.2929C46.5196 54.1054 46.2652 54 46 54H41.5L38.8 50.4C38.7069 50.2758 38.5861 50.175 38.4472 50.1056C38.3084 50.0361 38.1552 50 38 50H35.618L34 46.7639V20.2609C34.2081 20.4056 34.4081 20.5615 34.5993 20.728L37.231 23.0309C39.4183 24.9453 42.2263 26.0003 45.133 26H47.5723L44.2995 35H43C42.7348 35 42.4804 35.1054 42.2929 35.2929C42.1054 35.4804 42 35.7348 42 36C42 38.1217 42.8429 40.1566 44.3431 41.6569C45.8434 43.1571 47.8783 44 50 44C52.1217 44 54.1566 43.1571 55.6569 41.6569C57.1571 40.1566 58 38.1217 58 36C58 35.7348 57.8946 35.4804 57.7071 35.2929C57.5196 35.1054 57.2652 35 57 35H55.7005L52.4277 26H59C59.2652 26 59.5196 25.8946 59.7071 25.7071C59.8946 25.5196 60 25.2652 60 25V21C60 20.7348 59.8946 20.4804 59.7071 20.2929C59.5196 20.1054 59.2652 20 59 20ZM28 4C28 3.46957 28.2107 2.96086 28.5858 2.58579C28.9609 2.21071 29.4696 2 30 2C30.5304 2 31.0391 2.21071 31.4142 2.58579C31.7893 2.96086 32 3.46957 32 4V5.1835C30.6779 4.93887 29.3221 4.93887 28 5.1835V4ZM10 42C8.5825 41.9982 7.21126 41.4954 6.12857 40.5805C5.04588 39.6655 4.32144 38.3973 4.08325 37H15.9167C15.6786 38.3973 14.9541 39.6655 13.8714 40.5805C12.7887 41.4954 11.4175 41.9982 10 42ZM13.5723 35H6.42775L9.7005 26H10.2995L13.5723 35ZM45 58H15V56H45V58ZM39 54H21L22.5 52H37.5L39 54ZM32.1056 47.4473L33.3819 50H26.6181L27.8944 47.4473C27.9638 47.3084 28 47.1553 28 47V19.2943C29.3045 18.902 30.6955 18.902 32 19.2943V47C32 47.1553 32.0362 47.3084 32.1056 47.4473ZM50 42C48.5825 41.9982 47.2113 41.4954 46.1286 40.5805C45.0459 39.6655 44.3214 38.3973 44.0832 37H55.9166C55.6784 38.3973 54.954 39.6655 53.8714 40.5804C52.7887 41.4954 51.4175 41.9982 50 42ZM53.5723 35H46.4277L49.7005 26H50.2995L53.5723 35ZM58 24H45.133C42.7107 24.0003 40.3707 23.1211 38.548 21.5257L35.9162 19.2229C34.2785 17.7898 32.1762 17 30 17C27.8238 17 25.7215 17.7898 24.0837 19.2229L21.452 21.5257C19.6293 23.1211 17.2893 24.0003 14.867 24H2V22H7.6C10.3193 22.003 12.988 21.2653 15.3198 19.8662C17.6516 18.4672 19.5583 16.4595 20.8354 14.0588L22.0588 11.7646C22.8264 10.3253 23.9707 9.12165 25.3695 8.28238C26.7682 7.44312 28.3688 6.99978 30 6.99978C31.6312 6.99978 33.2318 7.44312 34.6305 8.28238C36.0293 9.12165 37.1736 10.3253 37.9412 11.7646L39.1647 14.0589C40.4418 16.4596 42.3485 18.4673 44.6803 19.8663C47.012 21.2653 49.6807 22.003 52.4 22H58V24Z" fill="currentColor"/>
<path d="M30 9C29.4067 9 28.8266 9.17595 28.3333 9.50559C27.8399 9.83524 27.4554 10.3038 27.2284 10.8519C27.0013 11.4001 26.9419 12.0033 27.0576 12.5853C27.1734 13.1672 27.4591 13.7018 27.8787 14.1213C28.2982 14.5409 28.8328 14.8266 29.4147 14.9424C29.9967 15.0581 30.5999 14.9987 31.148 14.7716C31.6962 14.5446 32.1648 14.1601 32.4944 13.6667C32.8241 13.1734 33 12.5933 33 12C32.9991 11.2046 32.6828 10.4421 32.1203 9.87967C31.5579 9.31725 30.7954 9.00089 30 9ZM30 13C29.8022 13 29.6089 12.9414 29.4444 12.8315C29.28 12.7216 29.1518 12.5654 29.0761 12.3827C29.0004 12.2 28.9806 11.9989 29.0192 11.8049C29.0578 11.6109 29.153 11.4327 29.2929 11.2929C29.4327 11.153 29.6109 11.0578 29.8049 11.0192C29.9989 10.9806 30.2 11.0004 30.3827 11.0761C30.5654 11.1518 30.7216 11.28 30.8315 11.4444C30.9414 11.6089 31 11.8022 31 12C30.9997 12.2651 30.8942 12.5193 30.7067 12.7067C30.5193 12.8942 30.2651 12.9997 30 13Z" fill="currentColor"/>
</symbol>

<symbol id="people" viewBox="0 0 78 60" fill="none">
<path d="M26.788 52.7917C26.485 52.7917 26.1943 52.9128 25.9801 53.1282C25.7658 53.3436 25.6454 53.6358 25.6454 53.9404V58.8512C25.6454 59.1558 25.7658 59.448 25.9801 59.6634C26.1943 59.8789 26.485 59.9999 26.788 59.9999C27.091 59.9999 27.3816 59.8789 27.5959 59.6634C27.8102 59.448 27.9306 59.1558 27.9306 58.8512V53.9404C27.9306 53.6358 27.8102 53.3436 27.5959 53.1282C27.3816 52.9128 27.091 52.7917 26.788 52.7917ZM51.212 52.7917C50.909 52.7917 50.6184 52.9128 50.4041 53.1282C50.1898 53.3436 50.0695 53.6358 50.0695 53.9404V58.8512C50.0695 59.1558 50.1898 59.448 50.4041 59.6634C50.6184 59.8789 50.909 59.9999 51.212 59.9999C51.5151 59.9999 51.8057 59.8789 52.02 59.6634C52.2342 59.448 52.3546 59.1558 52.3546 58.8512V53.9404C52.3546 53.6358 52.2342 53.3436 52.02 53.1282C51.8057 52.9128 51.5151 52.7917 51.212 52.7917ZM17.5291 28.3588C14.8759 27.0251 9.90145 27.0098 9.69091 27.0098C9.38788 27.0097 9.09724 27.1307 8.88294 27.3461C8.66863 27.5615 8.54822 27.8536 8.54818 28.1583C8.54814 28.4629 8.66848 28.7551 8.88272 28.9706C9.09697 29.186 9.38757 29.3071 9.6906 29.3071C10.9761 29.3079 14.7062 29.5082 16.5072 30.4135C16.7772 30.541 17.0861 30.5574 17.3679 30.4591C17.6497 30.3608 17.8821 30.1557 18.0155 29.8874C18.1489 29.6192 18.1727 29.3092 18.0818 29.0236C17.991 28.738 17.7926 28.4994 17.5291 28.3588ZM6.02734 50.3363C5.72431 50.3363 5.43369 50.4574 5.21942 50.6728C5.00514 50.8882 4.88477 51.1804 4.88477 51.485V58.8514C4.88477 59.156 5.00514 59.4482 5.21942 59.6636C5.43369 59.879 5.72431 60 6.02734 60C6.33037 60 6.62099 59.879 6.83527 59.6636C7.04954 59.4482 7.16992 59.156 7.16992 58.8514V51.485C7.16992 51.1804 7.04954 50.8882 6.83527 50.6728C6.62099 50.4574 6.33037 50.3363 6.02734 50.3363Z" fill="currentColor"/>
<path d="M75.343 46.0464L70.716 43.7209C70.7029 43.7144 70.6919 43.7043 70.6842 43.6918C70.6765 43.6793 70.6724 43.6648 70.6725 43.6501L70.6728 41.3122C72.5722 39.9974 73.9166 37.9187 74.253 35.4793C75.1073 33.995 75.5575 32.3186 75.5575 30.614C75.5575 27.4352 74.035 24.6077 71.6851 22.8283C71.8235 22.3671 71.8938 21.8879 71.8939 21.4061C71.8939 18.4033 69.19 15.9604 65.8666 15.9604C62.5433 15.9604 59.8393 18.4033 59.8393 21.4061C59.8393 21.8921 59.9097 22.3679 60.0474 22.8288C58.6348 23.8985 57.5386 25.3347 56.8764 26.9833C56.5932 24.1853 56.2982 20.8776 56.0153 17.0245C55.6421 11.9406 53.8234 7.64737 50.7561 4.60907C47.7122 1.59374 43.6469 0 38.9999 0C34.353 0 30.2877 1.59374 27.244 4.60891C24.1768 7.64737 22.3581 11.9406 21.9848 17.0243C21.8906 18.3071 21.7904 19.5893 21.6841 20.8711H10.9122C6.91533 20.8711 3.66356 24.1402 3.66356 28.1584V28.2269C3.66356 29.1627 3.88354 30.0998 4.2999 30.9368L4.88474 32.1129V33.9883C4.88474 36.9604 6.3416 39.6273 8.5483 41.2323V42.8912C8.54796 42.9952 8.51411 43.0963 8.45182 43.1794C8.38953 43.2624 8.30215 43.3229 8.20278 43.3518L3.48577 44.7068C1.4334 45.2961 0 47.2066 0 49.3524V58.8513C0 59.1559 0.120378 59.4481 0.334653 59.6635C0.548927 59.8789 0.839546 60 1.14258 60C1.44561 60 1.73623 59.8789 1.9505 59.6635C2.16477 59.4481 2.28515 59.1559 2.28515 58.8513V49.3524C2.28515 48.2267 3.03712 47.2246 4.11358 46.9154L8.83074 45.5604C8.99846 45.5117 9.16111 45.4467 9.31641 45.3665L12.212 48.2776V58.8513C12.212 59.1559 12.3324 59.4481 12.5467 59.6635C12.7609 59.8789 13.0516 60 13.3546 60C13.6576 60 13.9482 59.8789 14.1625 59.6635C14.3768 59.4481 14.4972 59.1559 14.4972 58.8513V48.2776L17.413 45.3462C17.8027 45.5384 18.191 45.6502 18.4756 45.732L19.6339 46.0646C18.0643 47.1866 17.0969 49.0167 17.0969 51.0011V58.851C17.0969 59.1556 17.2173 59.4478 17.4316 59.6632C17.6458 59.8786 17.9364 59.9997 18.2395 59.9997C18.5425 59.9997 18.8331 59.8786 19.0474 59.6632C19.2617 59.4478 19.3821 59.1556 19.3821 58.851V51.0011C19.3823 50.272 19.5932 49.5586 19.9892 48.9476C20.3852 48.3367 20.9491 47.8545 21.6125 47.5597L28.145 44.6591C29.1511 46.6875 30.7 48.3934 32.6176 49.5853C34.5353 50.7771 36.7456 51.4076 39.0001 51.4058C43.6423 51.4058 47.8113 48.7862 49.8572 44.66L56.3877 47.5597C57.0511 47.8545 57.615 48.3367 58.011 48.9476C58.4069 49.5586 58.6179 50.272 58.6181 51.0011V58.851C58.6181 59.1556 58.7385 59.4478 58.9528 59.6632C59.167 59.8786 59.4577 59.9997 59.7607 59.9997C60.0637 59.9997 60.3543 59.8786 60.5686 59.6632C60.7829 59.4478 60.9033 59.1556 60.9033 58.851V51.0011C60.9033 49.5318 60.3721 48.1475 59.4603 47.0715L61.2285 46.1827L62.5559 47.4508C63.4482 48.3059 64.634 48.7824 65.8668 48.7812C67.0578 48.7812 68.2494 48.3376 69.1775 47.4508L70.5047 46.1829L74.3212 48.1011C75.1809 48.5332 75.7149 49.4019 75.7149 50.3681V58.8511C75.7149 59.1558 75.8353 59.448 76.0495 59.6634C76.2638 59.8788 76.5544 59.9998 76.8574 59.9998C77.1605 59.9998 77.4511 59.8788 77.6654 59.6634C77.8796 59.448 78 59.1558 78 58.8511V50.3681C77.9999 48.5263 76.9818 46.8702 75.343 46.0464ZM65.8665 18.2575C67.9298 18.2575 69.6086 19.6699 69.6086 21.406C69.6086 21.4787 69.6028 21.5508 69.5971 21.6228C68.4156 21.1255 67.1473 20.87 65.8665 20.8711C64.5858 20.87 63.3178 21.1255 62.1365 21.6227C62.1306 21.5507 62.1243 21.4787 62.1243 21.406C62.1243 19.6699 63.8031 18.2575 65.8665 18.2575ZM13.3547 46.1775L10.7512 43.5601C10.805 43.3444 10.8338 43.1201 10.8338 42.8911V42.4065C11.6481 42.6768 12.5004 42.8137 13.3579 42.8121C14.2115 42.8125 15.0602 42.6836 15.8754 42.4295V42.8906C15.8754 43.1398 15.9009 43.3659 15.9461 43.5723L13.3547 46.1775ZM13.1635 40.5115C9.8586 40.4121 7.16989 37.4856 7.16989 33.9883V31.8417C7.1699 31.6634 7.12859 31.4875 7.04924 31.328L6.34374 29.9095C6.08464 29.3868 5.94943 28.8109 5.94871 28.2269V28.1584C5.94871 25.407 8.17536 23.1685 10.9122 23.1685H20.7606V27.937C20.7606 28.7075 20.5795 29.4792 20.2365 30.1685L19.6599 31.3278C19.5806 31.4873 19.5393 31.6632 19.5393 31.8415V34.2969C19.5393 35.993 18.8723 37.5778 17.6612 38.7593C16.4507 39.9401 14.8524 40.563 13.1635 40.5115ZM22.7129 44.5597L19.1034 43.523C18.1604 43.2522 18.1606 43.1466 18.1606 42.8909L18.1609 41.3084C18.5489 41.0389 18.9141 40.7378 19.2529 40.408C19.481 40.1848 19.6966 39.949 19.8988 39.7018C20.0856 40.084 20.3719 40.4081 20.7274 40.6397C21.6433 41.2359 23.3716 42.2264 25.9133 43.1386L22.7129 44.5597ZM38.9999 49.1086C37.1883 49.1102 35.4114 48.6089 33.8652 47.6599C32.3189 46.7109 31.0633 45.3512 30.2367 43.7305L31.8998 42.992C32.5353 42.7096 33.0756 42.2477 33.4549 41.6624C33.8342 41.0771 34.0362 40.3937 34.0364 39.6952V36.939C35.5716 37.5591 37.2468 37.9011 38.9999 37.9011C40.7531 37.9011 42.4281 37.5591 43.9634 36.939V39.6952C43.9636 40.3937 44.1657 41.0772 44.545 41.6624C44.9243 42.2477 45.4645 42.7096 46.1001 42.992L47.7629 43.7304C46.0851 47.0231 42.7313 49.1086 38.9999 49.1086ZM48.9074 41.7271L47.0233 40.8904C46.7928 40.788 46.597 40.6205 46.4594 40.4083C46.3219 40.1961 46.2487 39.9483 46.2486 39.695V35.7459C49.9204 33.351 52.3547 29.1936 52.3547 24.4752V22.3214C52.3547 20.9215 51.7627 19.601 50.7304 18.6986C48.4347 16.6914 43.2381 13.1885 34.2288 12.2828C34.0795 12.2678 33.9288 12.2825 33.7851 12.3261C33.6414 12.3696 33.5077 12.4412 33.3916 12.5368C33.2755 12.6323 33.1792 12.7499 33.1083 12.8828C33.0374 13.0157 32.9932 13.1614 32.9783 13.3115C32.9633 13.4616 32.978 13.6132 33.0213 13.7576C33.0647 13.902 33.1359 14.0365 33.2309 14.1532C33.3259 14.27 33.4429 14.3667 33.5751 14.4381C33.7073 14.5094 33.8522 14.5538 34.0015 14.5688C42.3812 15.4111 47.14 18.604 49.2309 20.4322C49.7639 20.8981 50.0695 21.5868 50.0695 22.3214V24.4752C50.0695 30.6114 45.1037 35.6036 39.0001 35.6036C32.8964 35.6036 27.9307 30.6114 27.9307 24.4752V23.5143C27.9307 23.0729 28.1741 22.6686 28.5818 22.4326C30.0103 21.6057 31.8942 20.0738 32.7569 17.4722C32.8527 17.1831 32.8304 16.8677 32.6949 16.5952C32.5593 16.3227 32.3217 16.1155 32.0342 16.0192C31.7467 15.9228 31.4329 15.9453 31.1619 16.0815C30.8908 16.2178 30.6847 16.4567 30.5889 16.7457C29.9533 18.6626 28.5265 19.8136 27.4415 20.4417C26.3336 21.083 25.6454 22.2604 25.6454 23.5145V24.4753C25.6454 29.1939 28.0795 33.3512 31.7514 35.7461V39.6952C31.7513 39.9485 31.6781 40.1963 31.5406 40.4085C31.403 40.6207 31.2072 40.7882 30.9768 40.8906L29.0924 41.7273C25.4124 40.7374 23.0544 39.4177 21.9693 38.7115C21.9477 38.6974 21.9355 38.6813 21.9416 38.645C22.3401 36.2766 23.3642 29.4451 24.2639 17.1936C24.5957 12.6732 26.1808 8.88717 28.8479 6.24523C31.4553 3.66257 34.9657 2.29734 38.9999 2.29734C43.0341 2.29734 46.5446 3.66257 49.152 6.24523C51.819 8.88717 53.4042 12.673 53.7361 17.1934C54.6357 29.4445 55.6598 36.2763 56.0584 38.6449C56.0645 38.6813 56.0523 38.6974 56.0306 38.7115C54.9439 39.4186 52.5859 40.7376 48.9074 41.7271ZM61.0603 43.65C61.0604 43.6647 61.0564 43.6791 61.0487 43.6916C61.041 43.7041 61.03 43.7142 61.0169 43.7207L57.4372 45.5202C57.3946 45.5001 57.3538 45.4776 57.3109 45.4584L52.0868 43.1389C54.6273 42.227 56.3554 41.237 57.2725 40.64C57.658 40.3891 57.9619 40.0302 58.1466 39.6075C58.3312 39.1848 58.3886 38.7169 58.3116 38.2618L58.2846 38.0998C58.9239 39.3899 59.8791 40.4954 61.0603 41.3122V43.65ZM67.6029 45.7857C66.6293 46.7163 65.1037 46.7162 64.1298 45.7857L63.0678 44.7712C63.2506 44.4261 63.346 44.041 63.3453 43.65V42.4276C64.1617 42.6825 65.0116 42.8121 65.8663 42.8119C66.7428 42.8119 67.5893 42.6765 68.3871 42.4276L68.387 43.6497C68.387 44.0508 68.4854 44.4337 68.6647 44.7714L67.6029 45.7857ZM65.8665 40.5144C62.7029 40.5144 60.0607 38.1329 59.7205 34.9746C59.7022 34.8054 59.6468 34.6423 59.5582 34.4972C58.8401 33.3215 58.4606 31.9786 58.4606 30.6137C58.4606 26.5085 61.7828 23.1685 65.8665 23.1685C69.95 23.1685 73.2723 26.5085 73.2723 30.6138C73.2718 31.4036 73.1449 32.1881 72.8967 32.9374C69.6524 29.6238 63.9451 28.3252 63.67 28.2643C63.5031 28.2274 63.3301 28.2286 63.1637 28.2678C62.9973 28.307 62.8418 28.3832 62.7086 28.4908C62.5753 28.5985 62.4678 28.7348 62.3939 28.8897C62.32 29.0446 62.2816 29.2142 62.2815 29.386C62.2815 29.3935 62.2294 30.1904 61.395 31.0292C61.1808 31.2446 61.0604 31.5367 61.0604 31.8414C61.0604 32.146 61.1808 32.4381 61.395 32.6536C61.6093 32.8689 61.8999 32.9899 62.2029 32.9899C62.5059 32.9899 62.7965 32.8689 63.0108 32.6536C63.6534 32.0075 64.0309 31.3519 64.2524 30.7982C66.175 31.3724 70.1653 32.8225 71.9561 35.3678C71.4479 38.3281 68.897 40.5144 65.8665 40.5144Z" fill="currentColor"/>
<path d="M71.9717 51.854C71.6686 51.854 71.378 51.975 71.1638 52.1904C70.9495 52.4059 70.8291 52.698 70.8291 53.0027V58.8512C70.8291 59.1559 70.9495 59.4481 71.1638 59.6635C71.378 59.8789 71.6686 59.9999 71.9717 59.9999C72.2747 59.9999 72.5653 59.8789 72.7796 59.6635C72.9939 59.4481 73.1143 59.1559 73.1143 58.8512V53.0027C73.1143 52.698 72.9939 52.4059 72.7796 52.1904C72.5653 51.975 72.2747 51.854 71.9717 51.854Z" fill="currentColor"/>
</symbol>

<symbol id="chat" viewBox="0 0 22 22" fill="none">
<path d="M10.9999 21H3.92383C3.47628 21 3.10314 20.7908 2.92561 20.4403C2.74812 20.0899 2.80027 19.6652 3.06513 19.3043L3.95444 18.0962C2.06879 16.2235 1 13.6752 1 11C1 5.48599 5.48594 1 10.9999 1C16.514 1 21 5.48599 21 11C21 16.5141 16.514 21 10.9999 21ZM10.9999 19.4691C15.6698 19.4691 19.4691 15.6699 19.4691 11C19.4691 6.33014 15.6698 2.53093 10.9999 2.53093C6.33009 2.53093 2.53093 6.33014 2.53093 11C2.53093 13.4671 3.60432 15.8069 5.47588 17.4195L6.01294 17.8822L4.84483 19.4691H10.9999Z" fill="white" stroke="currentColor" stroke-width="0.25"/>
<path d="M8.33408 11.0004C8.33408 11.5888 7.85714 12.0658 7.2687 12.0658C6.68016 12.0658 6.20312 11.5888 6.20312 11.0004C6.20312 10.4119 6.68016 9.93481 7.2687 9.93481C7.85714 9.93481 8.33408 10.4119 8.33408 11.0004Z" fill="currentColor"/>
<path d="M11 12.0657C11.5884 12.0657 12.0654 11.5887 12.0654 11.0002C12.0654 10.4118 11.5884 9.93481 11 9.93481C10.4116 9.93481 9.93457 10.4118 9.93457 11.0002C9.93457 11.5887 10.4116 12.0657 11 12.0657Z" fill="currentColor"/>
<path d="M14.7325 12.0658C15.3209 12.0658 15.7979 11.5887 15.7979 11.0003C15.7979 10.4118 15.3209 9.93481 14.7325 9.93481C14.144 9.93481 13.667 10.4118 13.667 11.0003C13.667 11.5887 14.144 12.0658 14.7325 12.0658Z" fill="currentColor"/>
</symbol>

<symbol id="hammer" viewBox="0 0 35 30" fill="none" xmlns="http://www.w3.org/2000/svg">
<path d="M19.1992 26.4056H18.72V25.0874C18.72 24.4133 18.1783 23.8649 17.5124 23.8649H5.21792C4.55205 23.8649 4.01036 24.4133 4.01036 25.0874V26.4056H3.53116C2.86529 26.4056 2.3236 26.954 2.3236 27.628V28.7775C2.3236 29.4516 2.86529 30 3.53116 30H6.50651C6.78189 30 7.00505 29.774 7.00505 29.4952C7.00505 29.2165 6.78183 28.9905 6.50651 28.9905H3.53116C3.47537 28.9904 3.42188 28.968 3.38243 28.928C3.34298 28.8881 3.3208 28.8339 3.32075 28.7775V27.628C3.3208 27.5715 3.34298 27.5173 3.38243 27.4774C3.42188 27.4375 3.47537 27.415 3.53116 27.415H19.1991C19.2549 27.415 19.3084 27.4375 19.3478 27.4774C19.3873 27.5173 19.4095 27.5715 19.4095 27.628V28.7775C19.4095 28.8339 19.3873 28.8881 19.3478 28.928C19.3084 28.968 19.2549 28.9904 19.1991 28.9905H8.80165C8.66941 28.9905 8.54259 29.0437 8.44908 29.1383C8.35558 29.233 8.30305 29.3614 8.30305 29.4952C8.30305 29.6291 8.35558 29.7575 8.44908 29.8522C8.54259 29.9468 8.66941 30 8.80165 30H19.1991C19.865 30 20.4067 29.4516 20.4067 28.7775V27.628C20.4067 26.954 19.865 26.4056 19.1992 26.4056ZM17.7228 26.4056H5.0075V25.0874C5.00755 25.0309 5.02974 24.9767 5.06919 24.9368C5.10864 24.8969 5.16213 24.8744 5.21792 24.8744H17.5123C17.5681 24.8744 17.6216 24.8969 17.6611 24.9368C17.7005 24.9767 17.7227 25.0309 17.7228 25.0874V26.4056H17.7228ZM33.6966 25.2483C33.1499 24.6948 32.2848 24.657 31.6935 25.1331L17.9225 11.1921C18.0997 10.8963 18.1123 10.5272 17.9607 10.2207L20.3472 7.80468L20.3648 7.8225C20.4567 7.91606 20.5661 7.99023 20.6865 8.04072C20.8069 8.09122 20.936 8.11703 21.0663 8.11667C21.3314 8.11667 21.5805 8.01222 21.7679 7.8225L22.6602 6.91919C22.8476 6.72953 22.9508 6.47728 22.9508 6.20904C22.9508 5.94079 22.8476 5.68855 22.6602 5.49889L17.5189 0.294177C17.427 0.200614 17.3177 0.126438 17.1973 0.0759424C17.0769 0.0254471 16.9477 -0.000363926 16.8174 3.87612e-06C16.6871 -0.000362449 16.5579 0.0254495 16.4375 0.075945C16.3171 0.12644 16.2078 0.200616 16.1159 0.294177L15.2236 1.19742C15.1312 1.29047 15.0579 1.40115 15.008 1.52306C14.9582 1.64497 14.9327 1.77569 14.933 1.90764C14.933 2.17589 15.0362 2.42813 15.2236 2.61779L15.2412 2.63561L12.8546 5.05165C12.483 4.86321 12.018 4.92506 11.7084 5.23854L9.67861 7.29343C9.36895 7.60692 9.30792 8.07751 9.494 8.45372L7.10743 10.8698L7.08975 10.8519C6.70299 10.4604 6.0736 10.4603 5.68678 10.8519L4.79441 11.7552C4.40766 12.1468 4.40766 12.7839 4.79441 13.1755L9.93571 18.3803C10.0278 18.4736 10.1371 18.5476 10.2575 18.598C10.3779 18.6484 10.5069 18.6742 10.6372 18.674C10.7675 18.6742 10.8965 18.6484 11.0169 18.598C11.1373 18.5476 11.2467 18.4736 11.3388 18.3803L12.2311 17.4769C12.6179 17.0853 12.6179 16.4482 12.2311 16.0566L12.2134 16.0387L14.6 13.6226C14.7379 13.6928 14.8902 13.7293 15.0446 13.7294C15.2231 13.7294 15.4012 13.68 15.5587 13.5833L29.3304 27.5251C29.1176 27.7943 29.002 28.1291 29.0027 28.4739C29.0022 28.6744 29.0409 28.873 29.1167 29.0582C29.1925 29.2434 29.3038 29.4115 29.4442 29.5529C29.7381 29.8504 30.1241 29.9991 30.5101 29.9991C30.896 29.9991 31.282 29.8504 31.5759 29.5529L33.6965 27.4061C33.9812 27.118 34.1379 26.7347 34.1379 26.3271C34.1379 25.9195 33.9813 25.5365 33.6966 25.2483ZM16.8174 1.01155L21.9516 6.2091L21.0664 7.1052L15.9323 1.90764L16.8174 1.01155ZM15.9463 3.34941L17.7943 5.22018L19.6422 7.09095L17.2917 9.47033L13.5959 5.72885L15.9463 3.34941ZM10.6373 17.663L5.5031 12.4655L6.38826 11.5694L11.5224 16.7669L10.6373 17.663ZM15.0447 12.7186L13.1762 10.827C13.0823 10.734 12.9561 10.6823 12.8248 10.6831C12.6935 10.6838 12.5678 10.737 12.475 10.8309C12.3822 10.9249 12.3297 11.0521 12.329 11.185C12.3282 11.3179 12.3793 11.4457 12.4711 11.5407L13.8589 12.9457L11.5084 15.3251L7.81251 11.5836L10.1629 9.20417L10.8242 9.87361C10.9181 9.96652 11.0443 10.0182 11.1756 10.0175C11.3069 10.0167 11.4326 9.96361 11.5254 9.86964C11.6182 9.77567 11.6707 9.64844 11.6714 9.51554C11.6721 9.38265 11.6211 9.25483 11.5293 9.15982L10.3873 8.00365L12.41 5.95598L17.0674 10.6709L15.0447 12.7186ZM16.2847 12.8908L17.2376 11.9262L30.981 25.8394L30.5046 26.3217L30.0281 26.8039L16.2847 12.8908ZM32.9915 26.6925L30.8709 28.8392C30.6721 29.0406 30.3483 29.0406 30.1494 28.8392C30.1018 28.7914 30.0642 28.7345 30.0385 28.6718C30.0128 28.6091 29.9997 28.5419 29.9999 28.474C29.9997 28.4062 30.0129 28.339 30.0385 28.2763C30.0642 28.2136 30.1018 28.1567 30.1494 28.1088L32.27 25.9621C32.3694 25.8614 32.5001 25.811 32.6307 25.811C32.7614 25.811 32.892 25.8614 32.9915 25.9621C33.1904 26.1635 33.1904 26.4911 32.9915 26.6925ZM3.57765 10.334C3.67502 10.4326 3.80261 10.4819 3.93019 10.4819C4.05778 10.4819 4.18536 10.4326 4.28274 10.334C4.32905 10.2871 4.36578 10.2315 4.39085 10.1703C4.41591 10.109 4.42881 10.0434 4.42881 9.97711C4.42881 9.91083 4.41591 9.84519 4.39085 9.78395C4.36578 9.72272 4.32905 9.66708 4.28274 9.62022L2.96073 8.28189C2.91444 8.23501 2.85948 8.19782 2.79899 8.17245C2.7385 8.14707 2.67367 8.13401 2.60819 8.13401C2.54271 8.13401 2.47787 8.14707 2.41738 8.17245C2.35689 8.19782 2.30193 8.23501 2.25564 8.28189C2.20933 8.32875 2.1726 8.38439 2.14754 8.44563C2.12247 8.50686 2.10957 8.5725 2.10957 8.63878C2.10957 8.70507 2.12247 8.77071 2.14754 8.83194C2.1726 8.89318 2.20933 8.94882 2.25564 8.99568L3.57765 10.334ZM2.8092 12.2822C2.82237 12.2172 2.82278 12.1503 2.8104 12.0852C2.79802 12.0201 2.7731 11.9581 2.73705 11.9028C2.70101 11.8475 2.65455 11.7999 2.60033 11.7627C2.5461 11.7256 2.48518 11.6996 2.42104 11.6862L0.58963 11.3057C0.461207 11.2816 0.328562 11.3095 0.220209 11.3833C0.111856 11.4571 0.0364448 11.5711 0.0101845 11.7006C-0.0160759 11.8301 0.00891146 11.9649 0.0797755 12.076C0.15064 12.187 0.261723 12.2655 0.389148 12.2946L2.22056 12.6751C2.35009 12.702 2.48487 12.6757 2.59525 12.602C2.70564 12.5283 2.7826 12.4133 2.8092 12.2822ZM5.61855 8.44933C5.63064 8.51531 5.6556 8.57818 5.69198 8.63428C5.72835 8.69038 5.77541 8.73857 5.83039 8.77604C5.88538 8.81351 5.94719 8.83951 6.01222 8.85251C6.07725 8.86551 6.14418 8.86526 6.20911 8.85177C6.27404 8.83828 6.33567 8.81182 6.39038 8.77394C6.44509 8.73605 6.49179 8.68751 6.52775 8.63114C6.56371 8.57477 6.58821 8.51171 6.59982 8.44565C6.61143 8.37958 6.60991 8.31184 6.59535 8.24637L6.21946 6.39235C6.19289 6.26122 6.11594 6.14614 6.00556 6.07244C5.89517 5.99875 5.76039 5.97246 5.63086 5.99936C5.50132 6.02627 5.38766 6.10416 5.31486 6.21591C5.24205 6.32766 5.21609 6.46411 5.24266 6.59524L5.61855 8.44933Z" fill="currentColor"/>
</symbol>

<symbol id="tab-1" viewBox="0 0 26 30" fill="none">
<path d="M25.1996 27.9241L24.4435 24.6697C24.4304 24.613 24.4044 24.5592 24.367 24.5112C24.3296 24.4632 24.2815 24.422 24.2255 24.3899C24.1695 24.3578 24.1067 24.3356 24.0407 24.3243C23.9746 24.3131 23.9066 24.3131 23.8406 24.3244C23.7072 24.3472 23.5898 24.4144 23.5142 24.5114C23.4387 24.6083 23.4112 24.727 23.4377 24.8413L24.1908 28.083C24.2173 28.2521 24.2468 28.6425 24.0122 28.874C23.6119 29.2693 22.7514 29.0654 20.5538 29.1208V24.9779C20.5538 24.9201 20.5406 24.863 20.5148 24.8096C20.489 24.7563 20.4513 24.7078 20.4036 24.667C20.356 24.6262 20.2995 24.5938 20.2373 24.5717C20.175 24.5496 20.1084 24.5383 20.041 24.5383C19.9737 24.5383 19.907 24.5496 19.8447 24.5717C19.7825 24.5938 19.726 24.6262 19.6784 24.667C19.6307 24.7078 19.593 24.7563 19.5672 24.8096C19.5414 24.863 19.5282 24.9201 19.5282 24.9779V29.1208H9.96692C9.68365 29.1208 9.4541 29.3175 9.4541 29.5603C9.4541 29.8031 9.68365 29.9999 9.96692 29.9999H23.1254C23.8583 29.9999 24.4172 29.815 24.7865 29.4505C25.2081 29.0344 25.3085 28.3905 25.1996 27.9241Z" fill="currentColor"/>
<path d="M23.9761 22.6573C23.7025 21.778 23.7984 20.6383 22.4711 19.7471C21.713 19.2394 21.4792 19.2744 17.1298 18.1747L15.7816 17.3932V16.6648C18.2411 15.5209 19.4232 13.4928 19.4232 11.5039V11.4228C21.1021 11.1567 21.9219 9.70839 20.9863 8.62419C20.9868 8.61763 21.0137 6.99496 20.9288 6.313C20.0693 0.102819 10.9609 -2.17234 6.33651 2.44536C6.24687 2.53303 6.20153 2.64764 6.21048 2.76397C6.21942 2.88029 6.2819 2.98881 6.38419 3.06565C6.48648 3.14248 6.62019 3.18135 6.7559 3.17368C6.89162 3.16602 7.01822 3.11246 7.10786 3.02478C10.9194 -0.750525 18.1698 0.735621 19.6989 5.49271L19.7073 5.51907C20.0528 6.61323 19.9402 7.37459 19.9624 7.95266C19.6587 7.84538 19.3212 7.78327 18.9653 7.77741C18.5976 7.60486 18.2849 7.30621 18.1175 6.91247C18.0315 6.69585 17.9987 6.58534 17.973 6.22125C17.9677 6.05094 17.9201 5.88355 17.8334 5.73025C17.7467 5.57695 17.6229 5.44125 17.4702 5.33222C16.4 4.56682 15.483 5.73985 9.6799 5.15697L8.90705 5.06486C8.07281 4.95354 7.30084 5.4903 7.27869 6.22523C7.26687 6.43751 7.25292 6.56706 7.17677 6.80307C7.0084 7.28611 6.67523 7.52986 6.69874 7.50888C6.5679 7.62191 6.42415 7.71314 6.28661 7.77741C5.93067 7.78327 5.59298 7.84532 5.2892 7.95272C5.29145 6.66907 5.29747 5.8312 5.90428 4.64534C5.9582 4.53867 5.96063 4.41804 5.91103 4.30985C5.86144 4.20165 5.76387 4.1147 5.63966 4.06802C5.51546 4.02134 5.37473 4.01873 5.24829 4.06077C5.12185 4.10281 5.01998 4.18606 4.96498 4.29232C4.5523 5.09902 4.31687 5.96086 4.27176 6.85874C4.27176 6.86465 4.25542 8.50589 4.26547 8.62431C3.32644 9.71238 4.15418 11.1576 5.82882 11.4229C5.8606 15.2618 9.38801 16.6064 9.44031 16.6509L9.45378 16.6572V17.4001L8.1264 18.1695C4.14167 19.1769 3.79462 19.2628 3.74745 19.2778C2.63137 19.6345 1.78517 20.3964 1.53012 21.4917C-0.0311747 28.2143 0.0349962 27.9252 0.0312365 27.9478C-0.164951 29.1359 0.567163 29.9995 2.11035 29.9995H7.57366C7.85693 29.9995 8.08648 29.8027 8.08648 29.5599C8.08648 29.3171 7.85693 29.1203 7.57366 29.1203H5.72594V24.9775C5.72594 24.7347 5.49639 24.5379 5.21312 24.5379C4.92984 24.5379 4.70029 24.7347 4.70029 24.9775V29.1204H2.11028C1.28007 29.1204 0.931238 28.8086 1.04499 28.0825C2.66733 21.3211 2.44318 21.2863 3.11302 20.6632C3.37962 20.4149 3.72216 20.2266 4.09006 20.1066L8.00957 19.1156L8.01785 19.1135C9.00637 21.4695 8.93979 21.3695 9.03652 21.5148C9.30188 21.9136 9.90952 22.1058 10.4807 21.8227L12.0064 21.3043V24.9774C12.0064 25.0351 12.0196 25.0923 12.0454 25.1456C12.0712 25.1989 12.109 25.2474 12.1566 25.2882C12.2042 25.329 12.2607 25.3614 12.323 25.3835C12.3852 25.4056 12.4519 25.4169 12.5192 25.4169C12.5866 25.4169 12.6533 25.4056 12.7155 25.3835C12.7777 25.3614 12.8342 25.329 12.8819 25.2882C12.9295 25.2474 12.9673 25.1989 12.993 25.1456C13.0188 25.0923 13.0321 25.0351 13.032 24.9774V21.2845C15.255 21.9768 14.621 21.7716 14.8826 21.8768C15.4194 22.0923 16.0807 21.8728 16.2893 21.3716L17.2283 19.1161C21.7509 20.2595 20.5857 19.9697 20.7815 20.0144C20.8229 20.0357 22.3702 20.249 22.6994 21.6633L22.9701 22.8289C22.9833 22.8856 23.0093 22.9394 23.0467 22.9874C23.0841 23.0354 23.1322 23.0766 23.1882 23.1087C23.2442 23.1407 23.307 23.163 23.3731 23.1743C23.4391 23.1855 23.5071 23.1855 23.5732 23.1742C23.6392 23.163 23.7021 23.1407 23.7581 23.1086C23.8141 23.0765 23.8621 23.0353 23.8995 22.9873C23.937 22.9393 23.963 22.8855 23.9761 22.8288C23.9892 22.7722 23.9892 22.7139 23.9761 22.6573ZM19.4232 8.71841C20.6609 9.03399 20.6602 10.2056 19.4232 10.521V8.71841ZM5.82902 10.5211C4.59113 10.2056 4.59133 9.03376 5.82902 8.71835V10.5211ZM7.2575 13.3237C6.736 12.1959 6.85467 11.596 6.85467 8.51175C7.66984 8.09973 8.27193 7.31752 8.30447 6.24357C8.31028 6.04553 8.52513 5.90332 8.74894 5.93344L8.90643 5.95395C9.39444 5.97404 11.9188 6.4865 16.5029 5.9335C16.5578 5.92622 16.6138 5.92903 16.6673 5.94172C16.7208 5.95442 16.7706 5.97672 16.8133 6.00715C16.9384 6.09674 16.944 6.19564 16.9498 6.28095C16.9825 7.05942 17.3175 7.76124 17.9886 8.25898L17.9849 8.25629C18.0797 8.32959 18.2465 8.43576 18.3973 8.51164L18.3975 11.504C18.3975 15.0498 14.0498 17.6343 9.9774 15.9002C9.97521 15.8993 9.97213 15.898 9.96906 15.8967L9.96892 15.8967C8.77361 15.3644 7.78153 14.4613 7.2575 13.3237ZM9.93187 21.0801C9.91724 21.079 9.96673 21.1668 8.95558 18.7501L9.85292 18.2301L11.7192 20.4564C9.95798 21.0607 10.0317 21.0167 9.93187 21.0801ZM12.5354 19.9233L10.4796 17.4711V17.0321C11.5999 17.3496 12.5139 17.3243 12.5764 17.3292V17.3254C12.5794 17.3254 12.5825 17.3256 12.5857 17.3256L12.5857 17.3293C13.5375 17.3153 14.0892 17.2246 14.756 17.0369V17.4757L12.5354 19.9233ZM15.3223 21.0784C15.3108 21.0873 15.292 21.0528 15.1828 21.0188L13.3567 20.4504L15.3791 18.2212L16.2917 18.7501L15.3223 21.0784Z" fill="currentColor"/>
<path d="M8.00993 19.1157C8.00483 19.1172 8.01065 19.1156 8.00993 19.1157V19.1157Z" fill="currentColor"/>
</symbol>

<symbol id="tab-2" viewBox="0 0 25 22" fill="none">
<path d="M23.75 3.59848H18.3333V1.99916C18.3319 0.895523 17.4001 0.00134943 16.25 0H8.75C7.5999 0.00134943 6.66807 0.895523 6.66667 1.99916V3.59848H1.25C0.559687 3.59848 0 4.13556 0 4.79798V13.6981C0.00123743 13.9456 0.0818921 14.1868 0.230995 14.3888C0.380098 14.5907 0.590412 14.7437 0.833333 14.827V20.3914C0.833333 21.0538 1.39302 21.5909 2.08333 21.5909H22.9167C23.607 21.5909 24.1667 21.0538 24.1667 20.3914V14.8274C24.4096 14.7441 24.6199 14.591 24.769 14.3889C24.9181 14.1869 24.9988 13.9457 25 13.6981V4.79798C25 4.13556 24.4403 3.59848 23.75 3.59848ZM7.5 1.99916C7.5 1.33674 8.05969 0.799663 8.75 0.799663H16.25C16.9403 0.799663 17.5 1.33674 17.5 1.99916V3.59848H16.6667V1.99916C16.6667 1.89312 16.6228 1.79142 16.5446 1.71643C16.4665 1.64145 16.3605 1.59933 16.25 1.59933H8.75C8.63949 1.59933 8.53351 1.64145 8.45537 1.71643C8.37723 1.79142 8.33333 1.89312 8.33333 1.99916V3.59848H7.5V1.99916ZM15.8333 3.59848H9.16667V2.39899H15.8333V3.59848ZM23.3333 20.3914C23.3333 20.4975 23.2894 20.5992 23.2113 20.6741C23.1332 20.7491 23.0272 20.7912 22.9167 20.7912H2.08333C1.97283 20.7912 1.86685 20.7491 1.78871 20.6741C1.71057 20.5992 1.66667 20.4975 1.66667 20.3914V14.9644L10.8333 16.1776V17.1928C10.8333 17.8552 11.393 18.3923 12.0833 18.3923H12.9167C13.607 18.3923 14.1667 17.8552 14.1667 17.1928V16.1775L23.3333 14.9644V20.3914ZM13.3333 17.1928C13.3333 17.2988 13.2894 17.4005 13.2113 17.4755C13.1332 17.5505 13.0272 17.5926 12.9167 17.5926H12.0833C11.9728 17.5926 11.8668 17.5505 11.7887 17.4755C11.7106 17.4005 11.6667 17.2988 11.6667 17.1928V14.7938C11.6667 14.6877 11.7106 14.586 11.7887 14.511C11.8668 14.4361 11.9728 14.3939 12.0833 14.3939H12.9167C13.0272 14.3939 13.1332 14.4361 13.2113 14.511C13.2894 14.586 13.3333 14.6877 13.3333 14.7938V17.1928ZM24.1667 13.6981C24.1668 13.7945 24.1306 13.8878 24.0647 13.9606C23.9989 14.0334 23.9079 14.081 23.8084 14.0945L23.6928 14.1097L14.1667 15.3702V14.7938C14.1667 14.1314 13.607 13.5943 12.9167 13.5943H12.0833C11.393 13.5943 10.8333 14.1314 10.8333 14.7938V15.3703L1.19203 14.0945C1.09248 14.081 1.00134 14.0335 0.935424 13.9607C0.869504 13.8878 0.833246 13.7946 0.833333 13.6981V4.79798C0.833333 4.69194 0.877232 4.59024 0.955372 4.51526C1.03351 4.44027 1.13949 4.39815 1.25 4.39815H23.75C23.8605 4.39815 23.9665 4.44027 24.0446 4.51526C24.1228 4.59024 24.1667 4.69194 24.1667 4.79798V13.6981Z" fill="currentColor"/>
</symbol>

<symbol id="play" viewBox="0 0 19 24" fill="none">
<path d="M18.4223 11.3808L1.92225 0.130606C1.692 -0.0253965 1.395 -0.0426465 1.149 0.0871056C0.90375 0.216858 0.75 0.471862 0.75 0.750116V23.2505C0.75 23.5287 0.903751 23.7837 1.14975 23.9135C1.25925 23.972 1.38 24.0005 1.5 24.0005C1.64775 24.0005 1.7955 23.9562 1.92225 23.87L18.4223 12.6198C18.627 12.4803 18.75 12.2486 18.75 12.0003C18.75 11.752 18.627 11.5203 18.4223 11.3808ZM10.3723 16.2931C6.92343 18.6445 2.25 16.1745 2.25 12.0003C2.25 7.82614 6.92343 5.35614 10.3723 7.70751C13.3974 9.76995 13.3974 14.2306 10.3723 16.2931Z" fill="currentColor"/>
<path d="M10.3723 16.2931C6.92343 18.6445 2.25 16.1745 2.25 12.0003C2.25 7.82614 6.92343 5.35614 10.3723 7.70751C13.3974 9.76995 13.3974 14.2306 10.3723 16.2931Z" fill="currentColor"/>
</symbol>


</svg>